# xmcd CD database file
#
# Track frame offsets:
#	150
#	20125
#	34680
#	56583
#	78718
#	95686
#	111291
#	126223
#	153925
#	168793
#	176003
#
# Disc length: 2599 seconds
#
# Revision: 0
# Processed by: cddbd v1.5.2PL0 Copyright (c) Steve Scherf et al.
# Submitted via: CDex 1.75
#
DISCID=8d0a250b
DTITLE=Blues and Decker - From the men we are
DYEAR=2016
DGENRE=Blues
TTITLE0=The hope of July
TTITLE1=Celtic spells
TTITLE2=Little black angels
TTITLE3=Not a nob
TTITLE4=Growing to your chest
TTITLE5=Hair trigger
TTITLE6=Fire in the hole
TTITLE7=In a low mood
TTITLE8=The boy
TTITLE9=Requiem mass
TTITLE10=When you leave
EXTD=YEAR: 2016
EXTT0=
EXTT1=
EXTT2=
EXTT3=
EXTT4=
EXTT5=
EXTT6=
EXTT7=
EXTT8=
EXTT9=
EXTT10=
PLAYORDER=
